<?xml version="1.0" encoding="utf-8"?>
<!-- Generator: Adobe Illustrator 27.2.0, SVG Export Plug-In . SVG Version: 6.00 Build 0)  -->
<svg version="1.1" id="레이어_1" xmlns="http://www.w3.org/2000/svg" xmlns:xlink="http://www.w3.org/1999/xlink" x="0px"
	 y="0px" viewBox="0 0 538.31 528.05" style="enable-background:new 0 0 538.31 528.05;" xml:space="preserve">
<path d="M103.73,90.67c0,0-16.75-47.68,19.65-75.7s71.84,0,82.47,14.82c10.63,14.82,13.21,23.19,13.21,23.19s70.55-1.93,124.03,9.34
	s64.75,14.17,64.75,14.17s33.5-25.45,58.95-15.46s38.66,51.22,38.34,76.67s-3.87,31.25-14.5,39.62c0,0,35.44,32.89,38.98,109.57
	c3.54,76.67-10.95,118.87-43.81,154.95s-113.72,81.18-218.09,82.47S97.61,475.67,52.19,420.26S-2.58,285.25,22.23,225.65
	s58.31-94.39,58.31-94.39S97.61,98.73,103.73,90.67z"/>
</svg>
